<?xml version="1.0" standalone="no"?>
<!DOCTYPE svg PUBLIC "-//W3C//DTD SVG 20010904//EN" "http://www.w3.org/TR/2001/REC-SVG-20010904/DTD/svg10.dtd">
<svg version="1.0" xmlns="http://www.w3.org/2000/svg" width="800.000000pt" height="800.000000pt" viewBox="0 0 800.000000 800.000000" preserveAspectRatio="xMidYMid meet">
<metadata>
Created by potrace 1.11, written by Peter Selinger 2001-2013
</metadata>
<g transform="translate(0.000000,800.000000) scale(0.100000,-0.100000)" fill="#000000" stroke="none">
<path d="M3480 7910 c-718 -95 -1376 -377 -1950 -836 -158 -127 -429 -393 -556 -547 -442 -537 -733 -1171 -848 -1847 -41 -242 -51 -376 -50 -680 0 -234 4 -314 22 -450 54 -400 141 -718 298 -1090 33 -80 50 -110 60 -106 31 12 554 318 554 324 0 4 -20 55 -44 114 -288 696 -319 1501 -85 2225 136 418 337 780 621 1118 104 123 331 344 457 444 463 368 1038 613 1599 682 l102 13 0 328 0 328 -22 -1 c-13 0 -84 -9 -158 -19z"/><path d="M4320 7602 l0 -328 98 -12 c138 -16 330 -57 489 -103 859 -251 1595 -866 1997 -1667 361 -721 447 -1514 246 -2289 -38 -147 -107 -349 -156 -461 -13 -30 -24 -58 -24 -62 0 -9 559 -335 565 -329 2 2 21 45 43 94 152 347 250 704 304 1105 18 136 22 216 22 450 1 304 -9 438 -50 680 -115 676 -406 1310 -848 1847 -127 154 -398 420 -556 547 -578 462 -1237 743 -1958 836 -84 11 -157 20 -162 20 -6 0 -10 -125 -10 -328z"/><path d="M3835 6634 c-979 -66 -1829 -655 -2231 -1547 -105 -232 -188 -547 -215 -811 -15 -151 -6 -504 16 -646 86 -560 343 -1068 740 -1465 1019 -1020 2671 -1020 3690 0 397 397 654 905 740 1465 22 142 31 495 16 646 -105 1044 -818 1923 -1821 2242 -126 40 -299 78 -440 96 -120 16 -392 27 -495 20z m588 -2204 c476 -250 863 -458 859 -462 -6 -6 -1834 -882 -1909 -914 l-33 -14 0 979 0 979 108 -56 c60 -32 498 -262 975 -512z"/><path d="M1053 1943 l-282 -165 60 -81 c178 -244 460 -540 687 -725 597 -485 1294 -775 2072 -863 152 -18 648 -18 800 0 777 88 1477 379 2072 863 133 108 365 334 483 468 111 127 266 333 257 341 -4 4 -133 79 -286 167 l-279 161 -50 -67 c-88 -117 -201 -243 -333 -373 -449 -438 -1006 -733 -1622 -858 -397 -81 -865 -83 -1264 -5 -433 84 -893 281 -1248 533 -263 187 -564 479 -730 708 -25 34 -47 62 -50 62 -3 -1 -132 -75 -287 -166z"/>
</g>
</svg>
